<svg version="1" xmlns="http://www.w3.org/2000/svg" width="1200" height="1200" viewBox="0 0 900.000000 900.000000"><path d="M0 450v450h900V0H0v450zm583.5-344.9c40.6 5.2 78.9 28.7 101.1 62.1 29.8 44.8 28.1 104-4.2 147.1-25.6 34.1-66.5 55.3-111.2 57.4-21.3 1-38.5-1.7-62.2-9.9l-12.5-4.3H479c-14.9 0-15.8.1-24 3.2-25.1 9.2-35.1 12.3-45.1 13.8-10.9 1.5-30.4 1.9-37.3.7l-3.8-.7 5.8-4c8.8-6 26.1-23.8 32.5-33.5 16.9-25.5 20.3-42.3 14.3-70.6-3.5-16.4-3.9-38.7-1.1-52.4 8.6-40.5 34.3-74 71.6-93.3 28.1-14.6 58.7-19.8 91.6-15.6zm-311 200.4c16.6 3 34.1 15.1 42.8 29.6 6.2 10.6 8.9 20.5 9 33.4.1 19.6-5.1 32.4-18.8 46.1-10.5 10.6-20.6 15.8-35 18.2-21.7 3.5-41-2.6-56.4-17.9-12.1-12.1-17.8-25-18.8-41.9-1-17.9 4.9-34.4 16.8-47.4 16.2-17.6 36.5-24.4 60.4-20.1zm3.8 166c17.9 4.6 33.5 17.5 41.6 34.1 7 14.4 6.5 3.2 6.9 154.1l.3 136.3-65.1.2-65 .3V662c0-149.7-.3-141.9 6.9-156.6 13.5-27.4 44.8-41.6 74.4-33.9z"/></svg>